<svg width="36" height="36" viewBox="0 0 36 36" fill="none" xmlns="http://www.w3.org/2000/svg">
<g clip-path="url(#clip0_898_167)">
<path d="M35.5203 16.1883C35.8279 15.3958 36 14.5356 36 13.6336C36 10.6723 34.1804 8.13323 31.5945 7.09051C30.3849 6.59522 29.41 5.62027 28.9147 4.41072C27.8668 1.82476 25.3329 0 22.3716 0C21.4697 0 20.6094 0.172049 19.8169 0.479652C18.6491 0.933237 17.3613 0.933237 16.1883 0.479652C15.3958 0.172049 14.5356 0 13.6284 0C10.6671 0 8.13324 1.82476 7.0853 4.41072C6.59001 5.62027 5.61506 6.59522 4.4055 7.09051C1.81955 8.13323 0 10.6723 0 13.6336C0 14.5356 0.166836 15.401 0.479652 16.1935C0.933237 17.3613 0.933237 18.6439 0.479652 19.8065C0.166836 20.6042 0 21.4697 0 22.3768C0 23.3518 0.198117 24.2798 0.552643 25.1244C1.26169 26.7928 2.58595 28.1379 4.24909 28.8573C5.50036 29.3996 6.56915 30.3328 7.0853 31.5997C8.13324 34.1804 10.6671 36.0052 13.6284 36.0052C14.5356 36.0052 15.3958 35.8332 16.1883 35.5256C17.3613 35.072 18.6491 35.072 19.8169 35.5256C20.6094 35.8332 21.4697 36.0052 22.3716 36.0052C25.3277 36.0052 27.8668 34.1857 28.9147 31.5997C29.41 30.3901 30.3849 29.4152 31.5945 28.9199C34.1804 27.872 36 25.3382 36 22.3768C36 21.4749 35.8279 20.6094 35.5203 19.8169C35.0668 18.6491 35.0668 17.3561 35.5203 16.1883ZM22.3403 19.8378C21.6261 21.527 19.9473 22.7105 17.9974 22.7105C17.3613 22.7105 16.7513 22.5854 16.1987 22.356C15.0517 21.8815 14.1393 20.9744 13.6597 19.8378C13.4198 19.2747 13.2895 18.6543 13.2895 18.0026C13.2895 17.3509 13.4198 16.7305 13.6597 16.1674C14.1185 15.0778 14.9787 14.1967 16.0579 13.7066C16.1622 13.6597 16.2665 13.618 16.3812 13.5762C16.8869 13.3886 17.4291 13.2895 17.9974 13.2895C18.6491 13.2895 19.2643 13.4198 19.8274 13.6597C20.9587 14.1393 21.8607 15.0413 22.3403 16.1674C22.5802 16.7305 22.7105 17.3509 22.7105 18.0026C22.7105 18.6543 22.5802 19.2747 22.3403 19.8378Z" fill="#171717"/>
</g>
<defs>
<clipPath id="clip0_898_167">
<rect width="36" height="36.0052" fill="white"/>
</clipPath>
</defs>
</svg>
