<svg width="581" height="581" viewBox="0 0 581 581" fill="none" xmlns="http://www.w3.org/2000/svg">
<g clip-path="url(#clip0_1130_335)">
<rect width="581" height="581" fill="#FCF9BB"/>
<g clip-path="url(#clip1_1130_335)">
<path d="M542.99 216.147C549.061 212.635 554.616 207.988 559.285 202.187C574.615 183.14 576.109 157.434 564.951 137.403C559.771 127.985 558.576 116.69 561.666 106.359C568.344 84.3264 561.568 59.5339 542.609 44.2751C536.834 39.6277 530.436 36.3017 523.77 34.1969C513.946 31.0967 505.701 24.4614 500.539 15.4996C497.058 9.43779 492.441 3.89863 486.633 -0.775692C467.674 -16.0344 442.006 -17.3536 421.911 -6.12075C412.479 -0.893099 401.19 0.354075 390.882 -2.6927C368.929 -9.31055 344.136 -2.35534 328.807 16.6916C324.138 22.4928 320.726 28.919 318.626 35.6279C315.485 45.4766 308.845 53.7258 299.923 58.8665C293.791 62.3853 288.243 67.0922 283.547 72.927C278.5 79.1977 274.964 86.1875 272.862 93.4466C268.765 107.831 270.28 123.306 277.204 136.503C282.408 146.438 284.419 157.947 281.165 168.756C274.515 190.754 281.291 215.547 300.25 230.805C306.058 235.48 312.456 238.806 319.122 240.911C328.98 244.038 337.224 250.673 342.353 259.608C345.834 265.67 350.451 271.209 356.226 275.856C375.151 291.088 400.826 292.468 420.921 281.235C430.353 276.007 441.642 274.76 451.95 277.807C473.93 284.391 498.696 277.469 514.025 258.423C518.694 252.621 522.073 246.168 524.206 239.486C527.347 229.638 534.04 221.321 542.99 216.147ZM439.717 171.708C426.4 178.893 409.526 177.855 397.042 167.807C392.97 164.53 389.712 160.582 387.362 156.259C382.474 147.298 381.329 136.762 384.142 126.98C385.521 122.122 387.898 117.46 391.272 113.269C394.646 109.077 398.692 105.758 403.142 103.372C411.72 98.7279 421.788 97.4933 431.235 99.902C432.145 100.137 433.028 100.407 433.979 100.729C438.188 102.128 442.172 104.285 445.81 107.213C449.983 110.571 453.247 114.579 455.61 119.023C460.37 127.937 461.476 138.386 458.717 148.101C457.338 152.958 454.96 157.62 451.587 161.812C448.213 166.004 444.167 169.322 439.717 171.708Z" fill="#E0DEA7"/>
</g>
<g clip-path="url(#clip2_1130_335)">
<path d="M161.624 199.847C166.404 199.324 171.174 197.946 175.708 195.599C190.593 187.892 198.641 172.18 197.184 156.528C196.54 149.187 198.915 141.772 203.711 136.146C213.995 124.173 216.603 106.747 208.932 91.9305C206.595 87.4179 203.502 83.5616 199.903 80.3972C194.598 75.7347 191.262 69.2917 190.503 62.2421C189.996 57.4766 188.632 52.7249 186.282 48.1861C178.611 33.3698 162.875 25.4416 147.162 26.9285C139.799 27.5984 132.373 25.2578 126.75 20.4951C114.81 10.2707 97.3339 7.775 82.4489 15.482C77.9153 17.8294 73.9973 20.9165 70.8243 24.544C66.1292 29.8528 59.6825 33.1907 52.6636 33.9471C47.8437 34.458 43.0613 35.8756 38.5015 38.2366C33.601 40.7739 29.4496 44.1804 26.1226 48.1523C19.5735 56.0418 16.2429 66.1681 16.9349 76.3616C17.4509 84.0332 15.5287 91.8094 10.4978 97.689C0.240509 109.649 -2.36767 127.075 5.30373 141.891C7.65377 146.43 10.747 150.286 14.3461 153.45C19.6649 158.139 23.0008 164.582 23.7463 171.606C24.253 176.371 25.6167 181.123 27.9533 185.636C35.6111 200.426 51.3344 208.394 67.0473 206.907C74.4102 206.237 81.8363 208.577 87.4592 213.34C99.4256 223.551 116.875 226.06 131.76 218.353C136.294 216.006 140.198 212.893 143.385 209.291C148.08 203.982 154.579 200.617 161.624 199.847ZM109.137 143.403C98.7959 144.225 88.4982 138.906 83.447 129.15C81.7992 125.968 80.848 122.59 80.5694 119.228C79.9828 112.255 82.1791 105.329 86.6495 99.9713C88.8585 97.3059 91.6393 95.0391 94.9151 93.3431C98.1908 91.647 101.647 90.6844 105.098 90.4189C111.764 89.8786 118.421 91.8895 123.68 96.0136C124.186 96.4132 124.666 96.8263 125.173 97.2917C127.426 99.3334 129.329 101.788 130.801 104.632C132.489 107.892 133.428 111.31 133.681 114.751C134.201 121.66 132.004 128.52 127.586 133.85C125.377 136.516 122.596 138.782 119.32 140.479C116.045 142.175 112.588 143.137 109.137 143.403Z" fill="#E0DEA7"/>
</g>
<g clip-path="url(#clip3_1130_335)">
<path d="M167.239 507.336C172.469 504.311 177.253 500.309 181.275 495.312C194.479 478.906 195.766 456.764 186.155 439.51C181.693 431.397 180.664 421.669 183.326 412.769C189.078 393.792 183.241 372.437 166.911 359.293C161.937 355.29 156.426 352.425 150.684 350.612C142.221 347.942 135.12 342.227 130.674 334.507C127.675 329.286 123.698 324.515 118.696 320.488C102.365 307.345 80.2559 306.209 62.9465 315.884C54.822 320.387 45.0984 321.462 36.2198 318.837C17.31 313.137 -4.0452 319.128 -17.2494 335.534C-21.2711 340.531 -24.21 346.066 -26.0185 351.845C-28.7245 360.328 -34.4432 367.434 -42.1285 371.862C-47.4104 374.893 -52.1893 378.947 -56.2343 383.973C-60.5814 389.374 -63.6268 395.395 -65.4378 401.648C-68.9666 414.037 -67.6616 427.367 -61.6982 438.735C-57.2157 447.292 -55.4829 457.206 -58.2856 466.515C-64.0138 485.464 -58.1773 506.819 -41.8469 519.963C-36.8442 523.989 -31.3332 526.854 -25.5915 528.667C-17.1001 531.36 -9.9987 537.076 -5.581 544.772C-2.58244 549.993 1.39431 554.764 6.36819 558.767C22.6699 571.888 44.7847 573.076 62.094 563.4C70.2186 558.897 79.9421 557.823 88.8207 560.448C107.754 566.119 129.086 560.157 142.29 543.751C146.312 538.754 149.222 533.195 151.059 527.44C153.765 518.957 159.53 511.793 167.239 507.336ZM78.284 469.059C66.8132 475.247 52.2784 474.353 41.5256 465.699C38.018 462.876 35.2121 459.475 33.1874 455.752C28.9777 448.032 27.9912 438.957 30.414 430.532C31.6021 426.348 33.6497 422.332 36.5555 418.721C39.4614 415.111 42.9465 412.252 46.7797 410.197C54.1684 406.197 62.841 405.133 70.9776 407.208C71.7618 407.411 72.5228 407.643 73.3413 407.921C76.967 409.125 80.3988 410.983 83.5326 413.505C87.1265 416.398 89.9379 419.85 91.9736 423.678C96.0738 431.356 97.026 440.357 94.6498 448.724C93.4617 452.908 91.4141 456.924 88.5082 460.534C85.6024 464.145 82.1172 467.004 78.284 469.059Z" fill="#E0DEA7"/>
</g>
<g clip-path="url(#clip4_1130_335)">
<path d="M575.239 593.336C580.469 590.311 585.253 586.309 589.275 581.312C602.479 564.906 603.766 542.764 594.155 525.51C589.693 517.397 588.664 507.669 591.326 498.769C597.078 479.792 591.241 458.437 574.911 445.293C569.937 441.29 564.426 438.425 558.684 436.612C550.221 433.942 543.12 428.227 538.674 420.507C535.675 415.286 531.698 410.515 526.696 406.488C510.365 393.345 488.256 392.209 470.947 401.884C462.822 406.387 453.098 407.462 444.22 404.837C425.31 399.137 403.955 405.128 390.751 421.534C386.729 426.531 383.79 432.066 381.981 437.845C379.276 446.328 373.557 453.434 365.871 457.862C360.59 460.893 355.811 464.947 351.766 469.973C347.419 475.374 344.373 481.395 342.562 487.648C339.033 500.037 340.338 513.367 346.302 524.735C350.784 533.292 352.517 543.206 349.714 552.515C343.986 571.464 349.823 592.819 366.153 605.963C371.156 609.989 376.667 612.854 382.408 614.667C390.9 617.36 398.001 623.076 402.419 630.772C405.418 635.993 409.394 640.764 414.368 644.767C430.67 657.888 452.785 659.076 470.094 649.4C478.219 644.897 487.942 643.823 496.821 646.448C515.754 652.119 537.086 646.157 550.29 629.751C554.312 624.754 557.222 619.195 559.059 613.44C561.765 604.957 567.53 597.793 575.239 593.336ZM486.284 555.059C474.813 561.247 460.278 560.353 449.526 551.699C446.018 548.876 443.212 545.475 441.187 541.752C436.978 534.032 435.991 524.957 438.414 516.532C439.602 512.348 441.65 508.332 444.556 504.721C447.461 501.111 450.947 498.252 454.78 496.197C462.168 492.197 470.841 491.133 478.978 493.208C479.762 493.411 480.523 493.643 481.341 493.921C484.967 495.125 488.399 496.983 491.533 499.505C495.126 502.398 497.938 505.85 499.974 509.678C504.074 517.356 505.026 526.357 502.65 534.724C501.462 538.908 499.414 542.924 496.508 546.534C493.602 550.145 490.117 553.004 486.284 555.059Z" fill="#E0DEA7"/>
</g>
<circle cx="443.5" cy="354.5" r="14.5" fill="#E0DEA7"/>
<circle cx="210.5" cy="549.5" r="10.5" fill="#E0DEA7"/>
<g clip-path="url(#clip5_1130_335)">
<path d="M347.768 360.25C349.771 357.812 351.376 354.977 352.426 351.796C355.873 341.351 352.44 330.288 344.575 323.614C340.906 320.466 338.618 315.898 338.287 311.058C337.618 300.723 330.846 291.351 320.45 287.92C317.284 286.875 314.063 286.485 310.923 286.652C306.295 286.899 301.774 285.407 298.184 282.448C295.76 280.445 292.94 278.841 289.755 277.79C279.359 274.359 268.339 277.859 261.65 285.766C258.504 289.458 253.946 291.767 249.123 292.112C238.831 292.794 229.488 299.641 226.041 310.085C224.991 313.267 224.569 316.512 224.745 319.67C224.978 324.314 223.485 328.838 220.539 332.413C218.513 334.864 216.92 337.723 215.864 340.923C214.729 344.361 214.344 347.864 214.606 351.254C215.153 357.959 218.236 364.238 223.238 368.702C226.999 372.065 229.665 376.594 230.003 381.661C230.678 391.977 237.449 401.349 247.845 404.78C251.03 405.831 254.25 406.221 257.391 406.054C262.037 405.813 266.558 407.306 270.13 410.258C272.554 412.261 275.374 413.865 278.54 414.91C288.918 418.335 299.95 414.859 306.639 406.953C309.786 403.261 314.343 400.952 319.166 400.606C329.464 399.906 338.802 393.078 342.249 382.633C343.299 379.452 343.702 376.2 343.544 373.049C343.311 368.404 344.816 363.844 347.768 360.25ZM297.249 357.852C292.775 362.982 285.504 365.211 278.659 362.952C276.426 362.215 274.43 361.067 272.757 359.617C269.282 356.615 267.135 352.358 266.774 347.794C266.587 345.53 266.852 343.191 267.611 340.892C268.369 338.594 269.549 336.557 271.046 334.849C273.925 331.537 277.971 329.426 282.33 328.948C282.751 328.903 283.166 328.877 283.617 328.863C285.611 328.787 287.63 329.066 289.625 329.724C291.913 330.479 293.921 331.652 295.618 333.15C299.032 336.152 301.148 340.379 301.521 344.906C301.708 347.17 301.443 349.509 300.685 351.808C299.926 354.106 298.747 356.143 297.249 357.852Z" fill="#E0DEA7"/>
</g>
<circle cx="179" cy="277" r="23" fill="#E0DEA7"/>
<circle cx="241" cy="59" r="9" fill="#E0DEA7"/>
</g>
<defs>
<clipPath id="clip0_1130_335">
<rect width="581" height="581" fill="white"/>
</clipPath>
<clipPath id="clip1_1130_335">
<rect width="295.853" height="297.268" fill="white" transform="translate(399.383 -71) rotate(38.8281)"/>
</clipPath>
<clipPath id="clip2_1130_335">
<rect width="202.828" height="203.798" fill="white" transform="translate(150.979 -20) rotate(62.6263)"/>
</clipPath>
<clipPath id="clip3_1130_335">
<rect width="254.835" height="256.054" fill="white" transform="translate(43.542 260) rotate(38.8281)"/>
</clipPath>
<clipPath id="clip4_1130_335">
<rect width="254.835" height="256.054" fill="white" transform="translate(451.542 346) rotate(38.8281)"/>
</clipPath>
<clipPath id="clip5_1130_335">
<rect width="133.09" height="133.727" fill="white" transform="translate(241.91 262) rotate(18.2642)"/>
</clipPath>
</defs>
</svg>
