<svg width="52" height="52" viewBox="0 0 52 52" fill="none" xmlns="http://www.w3.org/2000/svg">
<rect width="52" height="52" rx="8" fill="#BBFCDC"/>
<g clip-path="url(#clip0_1290_504)">
<path d="M43.5203 24.1883C43.8279 23.3958 44 22.5356 44 21.6336C44 18.6723 42.1804 16.1332 39.5945 15.0905C38.3849 14.5952 37.41 13.6203 36.9147 12.4107C35.8668 9.82476 33.3329 8 30.3716 8C29.4697 8 28.6094 8.17205 27.8169 8.47965C26.6491 8.93324 25.3613 8.93324 24.1883 8.47965C23.3958 8.17205 22.5356 8 21.6284 8C18.6671 8 16.1332 9.82476 15.0853 12.4107C14.59 13.6203 13.6151 14.5952 12.4055 15.0905C9.81955 16.1332 8 18.6723 8 21.6336C8 22.5356 8.16684 23.401 8.47965 24.1935C8.93324 25.3613 8.93324 26.6439 8.47965 27.8065C8.16684 28.6042 8 29.4697 8 30.3768C8 31.3518 8.19812 32.2798 8.55264 33.1244C9.26169 34.7928 10.586 36.1379 12.2491 36.8573C13.5004 37.3996 14.5692 38.3328 15.0853 39.5997C16.1332 42.1804 18.6671 44.0052 21.6284 44.0052C22.5356 44.0052 23.3958 43.8332 24.1883 43.5256C25.3613 43.072 26.6491 43.072 27.8169 43.5256C28.6094 43.8332 29.4697 44.0052 30.3716 44.0052C33.3277 44.0052 35.8668 42.1857 36.9147 39.5997C37.41 38.3901 38.3849 37.4152 39.5945 36.9199C42.1804 35.872 44 33.3382 44 30.3768C44 29.4749 43.8279 28.6094 43.5203 27.8169C43.0668 26.6491 43.0668 25.3561 43.5203 24.1883ZM30.3403 27.8378C29.6261 29.527 27.9473 30.7105 25.9974 30.7105C25.3613 30.7105 24.7513 30.5854 24.1987 30.356C23.0517 29.8815 22.1393 28.9744 21.6597 27.8378C21.4198 27.2747 21.2895 26.6543 21.2895 26.0026C21.2895 25.3509 21.4198 24.7305 21.6597 24.1674C22.1185 23.0778 22.9787 22.1967 24.0579 21.7066C24.1622 21.6597 24.2665 21.618 24.3812 21.5762C24.8869 21.3886 25.4291 21.2895 25.9974 21.2895C26.6491 21.2895 27.2643 21.4198 27.8274 21.6597C28.9587 22.1393 29.8607 23.0413 30.3403 24.1674C30.5802 24.7305 30.7105 25.3509 30.7105 26.0026C30.7105 26.6543 30.5802 27.2747 30.3403 27.8378Z" fill="#171717"/>
</g>
<defs>
<clipPath id="clip0_1290_504">
<rect width="36" height="36.0052" fill="white" transform="translate(8 8)"/>
</clipPath>
</defs>
</svg>
